# xmcd
#
# Track frame offsets:
#	150
#	18882
#	35282
#	49292
#	66753
#	85545
#	102521
#	117763
#	133517
#	157223
#	170983
#	187384
#	206677
#	230419
#	246001
#	263487
#	282454
#
# Disc length: 3990 seconds
#
# Revision: 0
# Processed by: cddbd v1.5.2PL0 Copyright (c) Steve Scherf et al.
# Submitted via: audiograbber 1.83.01
#
DISCID=f50f9411
DTITLE=JonesTM - HC200720
DYEAR=2007
DGENRE=Country
TTITLE0=Faith Hill - Lost
TTITLE1=Phil Vassar - This Is My Life
TTITLE2=Taylor Fife - In These Fields
TTITLE3=Sugarland - Everyday America
TTITLE4=Jason Matthews - Travelin' Light
TTITLE5=Natalie Stovall - If I Run To You Now
TTITLE6=Dierks Bentley - Free And Easy (Down The Road I Go) [Edit]
TTITLE7=Onitsha - He Is
TTITLE8=Ne-Yo Feat. Jennifer Hudson - Leaving Tonight [Album Version]
TTITLE9=Akon - Don't Matter [Radio Edit]
TTITLE10=Dave Koz - The Pink Panther [Album Version]
TTITLE11=Dan Siegel - A World Away [Album Version]
TTITLE12=Dan Siegel - Departure [Album Version]
TTITLE13=Down To The Bone - Parkside Shuffle
TTITLE14=Kyle Eastwood - I Can't Remember
TTITLE15=Hiroshima - Lanai [Album Version]
TTITLE16=Nils - Catnap [Radio Edit]
EXTD=
EXTT0=
EXTT1=
EXTT2=
EXTT3=
EXTT4=
EXTT5=
EXTT6=
EXTT7=
EXTT8=
EXTT9=
EXTT10=
EXTT11=
EXTT12=
EXTT13=
EXTT14=
EXTT15=
EXTT16=
PLAYORDER=
